<svg xmlns="http://www.w3.org/2000/svg" width="206.53" height="83.48" viewBox="0 0 206.53 83.48">
  <path
    d="M26.58,38.35c-10.31,.28-18.89-7.85-19.17-18.16,0-.34,0-.67,0-1.01C7.13,8.87,15.26,.29,25.57,.01c.34,0,.67,0,1.01,0,3.23-.02,6.42,.79,9.24,2.36,2.75,1.49,5.05,3.68,6.67,6.36l-8.14,4.67c-.72-1.31-1.8-2.38-3.12-3.07-1.43-.76-3.03-1.15-4.65-1.13-2.65-.11-5.23,.89-7.12,2.76-1.84,1.94-2.82,4.55-2.7,7.22-.12,2.67,.86,5.28,2.7,7.22,1.88,1.87,4.46,2.87,7.12,2.76,1.62,.02,3.22-.36,4.65-1.13,1.33-.7,2.42-1.79,3.12-3.12l8.14,4.73c-1.6,2.69-3.9,4.89-6.65,6.38-2.84,1.56-6.03,2.37-9.27,2.34M65.54,5.49h9.35V37.56h-9.35v-14.13h-10.35v14.13h-9.4V.8h9.4V14.4h10.35V5.49Zm46.36,27.32c-7.62,7.39-19.74,7.39-27.36,0-3.68-3.57-5.7-8.51-5.59-13.63-.11-5.12,1.92-10.06,5.59-13.63,7.63-7.39,19.74-7.39,27.36,0,3.68,3.57,5.71,8.51,5.6,13.63,.11,5.12-1.92,10.06-5.6,13.63m-20.77-6.46c3.84,3.92,10.12,3.98,14.04,.14,1.96-1.92,3.04-4.57,2.98-7.31,.11-5.48-4.24-10.02-9.73-10.13-5.48-.11-10.02,4.24-10.13,9.73,0,.13,0,.27,0,.4-.09,2.68,.94,5.28,2.84,7.17M135.82,.8c3.48-.09,6.84,1.21,9.35,3.62,2.52,2.4,3.89,5.76,3.78,9.24,.11,3.48-1.26,6.84-3.78,9.24-2.51,2.41-5.87,3.72-9.35,3.62h-4.88v6.23h-9.4V.8h14.28Zm0,16.81c1,.02,1.96-.38,2.65-1.1,.73-.76,1.12-1.78,1.08-2.84,.04-1.04-.35-2.06-1.08-2.81-.7-.71-1.66-1.1-2.65-1.08h-4.88v7.83h4.88Zm59.25,17.22l-7.2,4.15-3.09-3.36c-2.85,1.83-6.18,2.78-9.57,2.73-3.99,0-7.2-1.04-9.61-3.12-2.38-2.01-3.72-5-3.62-8.11,0-4.34,1.98-7.75,5.93-10.24-1.1-1.8-1.68-3.88-1.68-5.99-.08-2.97,1.16-5.83,3.39-7.8C172.02,.98,175.13-.12,178.32,.01c5.99,0,10.21,2.75,12.66,8.24l-7.93,4.62c-.98-2.63-2.45-3.94-4.41-3.94-.78-.05-1.55,.23-2.13,.76-.51,.51-.78,1.2-.76,1.92,.01,.58,.16,1.15,.44,1.66,.23,.49,.53,.94,.88,1.36l1.59,1.78,6.18,6.93c.73-1.73,1.27-3.54,1.62-5.38l7.55,4.35c-.74,2.66-1.89,5.2-3.41,7.5l4.47,5.01Zm-18.92-4.62c1.06,.01,2.12-.2,3.09-.63l-6.18-6.73c-1.02,.88-1.6,2.17-1.58,3.52-.03,1.05,.4,2.06,1.18,2.76,.98,.78,2.23,1.17,3.48,1.08m11.2,14.93c10.31-.28,18.89,7.85,19.17,18.16,0,.34,0,.67,0,1.01-.01,10.6-8.61,19.18-19.21,19.17-3.22,0-6.38-.82-9.21-2.36-2.75-1.49-5.05-3.68-6.67-6.35l8.14-4.68c.72,1.31,1.8,2.38,3.12,3.07,3.88,1.97,8.57,1.32,11.76-1.63,1.84-1.94,2.82-4.55,2.71-7.22,.11-2.67-.86-5.28-2.71-7.22-3.2-2.95-7.89-3.6-11.76-1.63-1.33,.7-2.42,1.79-3.12,3.12l-8.14-4.73c1.6-2.69,3.9-4.89,6.64-6.38,2.84-1.56,6.03-2.37,9.27-2.34m-38.95,37.55h-9.35V45.93h9.35v14.13h10.35v-14.13h9.4v36.76h-9.4v-13.6h-10.35v13.6Zm-21.06,0l-1.76-5.31h-12.52l-1.59,5.31h-10.18l11.71-36.76h11.84l12.16,36.76h-9.67Zm-11.86-13.39h7.4l-3.73-12.5-3.67,12.5Zm-36.46,13.39h-9.35V45.93h7.25l12.97,18.48v-18.48h9.4v36.76h-7.29l-12.98-18.49v18.49Zm-51.32-15.7v-3.73c0-5.39,1.69-9.76,5.07-13.1,3.38-3.34,7.76-5.01,13.15-5.02,5.28-.18,10.39,1.81,14.15,5.51,3.65,3.57,5.66,8.49,5.54,13.6,.11,5.12-1.88,10.05-5.52,13.66-3.58,3.67-8.53,5.69-13.65,5.57-3.29,.04-6.53-.76-9.43-2.31-2.73-1.43-5.04-3.55-6.7-6.14l7.98-4.57c.8,1.21,1.92,2.17,3.23,2.78,1.5,.72,3.14,1.08,4.81,1.05,2.67,.09,5.26-.93,7.14-2.84,1.87-1.94,2.88-4.55,2.78-7.25,.07-2.67-.92-5.25-2.75-7.19-1.84-1.96-4.42-2.94-7.75-2.94-4.27,0-7.09,1.61-8.46,4.83h8.93v8.09H27.7Zm-13.47-12.24H0v-8.82H23.63v36.76H.26v-8.77H14.23v-5.09H1.58v-8.67H14.23v-5.41Z"/>
</svg>
